# xmcd
#
# Track frame offsets: 
#        182
#        16400
#        30512
#        47782
#        60602
#        77537
#        93807
#        107240
#        126267
#        140635
#        155080
#        168795
#        182347
#        197007
#        220362
#
# Disc length: 3336 seconds
#
# Revision: 4
# Processed by: cddbd v1.5.2PL0 Copyright (c) Steve Scherf et al.
# Submitted via: ExactAudioCopy v1.0b3
#
DISCID=bf0d060f,c50d060f
DTITLE=Heino - Nur das Beste (Die groessten Hits)
DYEAR=2000
DGENRE=Volksmusik
TTITLE0=Alte Kameraden
TTITLE1=Auf in den Kampf Torero (Carmen)
TTITLE2=Triumphmarsch
TTITLE3=Teure Heimat
TTITLE4=Wie ein Vogel im Wind
TTITLE5=Danke ist mehr als ein Wort
TTITLE6=Das Leben hat's im Leben gut mit mir gemeint
TTITLE7=Eine Traene von Dir
TTITLE8=Wie ein Felsen im Ozean
TTITLE9=Freunde fuer's Leben
TTITLE10=Wir blasen zur Jagd (Medley)
TTITLE11=Wir wandern zum Tor hinaus (Medley)
TTITLE12=Sierra madre del sur
TTITLE13=Medley (Die schwarze Barbera, Caramba Caracho ein Whisky, Moh
TTITLE13=ikana Shalali)
TTITLE14=Medley (Blau blueht der Enzian, Edelweiss..., Komm' in meinen
TTITLE14=Wigwam)
EXTD=
EXTT0=
EXTT1=
EXTT2=
EXTT3=
EXTT4=
EXTT5=
EXTT6=
EXTT7=
EXTT8=
EXTT9=
EXTT10=
EXTT11=
EXTT12=
EXTT13=
EXTT14=
PLAYORDER=
